<mxfile host="app.diagrams.net" agent="Mozilla/5.0 (Windows NT 10.0; Win64; x64; rv:143.0) Gecko/20100101 Firefox/143.0" version="28.2.5">
  <diagram name="Page-1" id="hqjtlSOXu0J3TYVjxEZw">
    <mxGraphModel dx="1042" dy="1683" grid="1" gridSize="10" guides="1" tooltips="1" connect="1" arrows="1" fold="1" page="1" pageScale="1" pageWidth="850" pageHeight="1100" math="0" shadow="0">
      <root>
        <mxCell id="0" />
        <mxCell id="1" parent="0" />
        <mxCell id="a4DN0tWLdunBfCbzzwAo-58" value="" style="rounded=0;whiteSpace=wrap;html=1;fillColor=#0050ef;fontColor=#ffffff;strokeColor=#001DBC;" parent="1" vertex="1">
          <mxGeometry x="240" y="510" width="80" height="80" as="geometry" />
        </mxCell>
        <mxCell id="a4DN0tWLdunBfCbzzwAo-61" value="" style="rounded=0;whiteSpace=wrap;html=1;fillColor=#d80073;fontColor=#ffffff;strokeColor=#A50040;" parent="1" vertex="1">
          <mxGeometry x="320" y="760" width="160" height="80" as="geometry" />
        </mxCell>
        <mxCell id="a4DN0tWLdunBfCbzzwAo-59" value="" style="rounded=0;whiteSpace=wrap;html=1;fillColor=#0050ef;fontColor=#ffffff;strokeColor=#001DBC;" parent="1" vertex="1">
          <mxGeometry x="120" y="840" width="250" height="160" as="geometry" />
        </mxCell>
        <mxCell id="a4DN0tWLdunBfCbzzwAo-4" value="" style="rounded=0;whiteSpace=wrap;html=1;fillColor=#0050ef;fontColor=#ffffff;strokeColor=#001DBC;" parent="1" vertex="1">
          <mxGeometry x="120" y="40" width="160" height="240" as="geometry" />
        </mxCell>
        <mxCell id="a4DN0tWLdunBfCbzzwAo-15" value="" style="rounded=0;whiteSpace=wrap;html=1;fillColor=light-dark(#FF3333,#FF0000);fontColor=#ffffff;strokeColor=light-dark(#FF3333,#FF0000);" parent="1" vertex="1">
          <mxGeometry x="280" y="40" width="280" height="240" as="geometry" />
        </mxCell>
        <mxCell id="a4DN0tWLdunBfCbzzwAo-23" value="" style="rounded=0;whiteSpace=wrap;html=1;fillColor=light-dark(#FF3333,#FF0000);fontColor=#ffffff;strokeColor=light-dark(#FF3333,#FF0000);" parent="1" vertex="1">
          <mxGeometry x="200" y="540" width="40" height="140" as="geometry" />
        </mxCell>
        <mxCell id="a4DN0tWLdunBfCbzzwAo-19" value="" style="rounded=0;whiteSpace=wrap;html=1;fillColor=#0050ef;fontColor=#ffffff;strokeColor=#001DBC;" parent="1" vertex="1">
          <mxGeometry x="120" y="440" width="80" height="240" as="geometry" />
        </mxCell>
        <mxCell id="a4DN0tWLdunBfCbzzwAo-30" value="" style="rounded=0;whiteSpace=wrap;html=1;fillColor=#0050ef;fontColor=#ffffff;strokeColor=#001DBC;" parent="1" vertex="1">
          <mxGeometry x="200" y="440" width="40" height="100" as="geometry" />
        </mxCell>
        <mxCell id="a4DN0tWLdunBfCbzzwAo-32" value="" style="rounded=0;whiteSpace=wrap;html=1;fillColor=#d80073;fontColor=#ffffff;strokeColor=#A50040;" parent="1" vertex="1">
          <mxGeometry x="240" y="440" width="80" height="70" as="geometry" />
        </mxCell>
        <mxCell id="a4DN0tWLdunBfCbzzwAo-34" value="" style="rounded=0;whiteSpace=wrap;html=1;fillColor=light-dark(#FF3333,#FF0000);fontColor=#ffffff;strokeColor=light-dark(#FF3333,#FF0000);" parent="1" vertex="1">
          <mxGeometry x="320" y="480" width="80" height="200" as="geometry" />
        </mxCell>
        <mxCell id="a4DN0tWLdunBfCbzzwAo-31" value="" style="rounded=0;whiteSpace=wrap;html=1;fillColor=light-dark(#FF3333,#FF0000);fontColor=#ffffff;strokeColor=light-dark(#FF3333,#FF0000);" parent="1" vertex="1">
          <mxGeometry x="240" y="590" width="80" height="90" as="geometry" />
        </mxCell>
        <mxCell id="a4DN0tWLdunBfCbzzwAo-36" value="" style="rounded=0;whiteSpace=wrap;html=1;fillColor=#d80073;fontColor=#ffffff;strokeColor=#A50040;" parent="1" vertex="1">
          <mxGeometry x="320" y="440" width="80" height="40" as="geometry" />
        </mxCell>
        <mxCell id="a4DN0tWLdunBfCbzzwAo-35" value="" style="rounded=0;whiteSpace=wrap;html=1;fillColor=light-dark(#FF3333,#FF0000);fontColor=#ffffff;strokeColor=light-dark(#FF3333,#FF0000);" parent="1" vertex="1">
          <mxGeometry x="400" y="440" width="160" height="240" as="geometry" />
        </mxCell>
        <mxCell id="a4DN0tWLdunBfCbzzwAo-1" value="" style="endArrow=none;html=1;rounded=0;strokeWidth=3;" parent="1" edge="1">
          <mxGeometry width="50" height="50" relative="1" as="geometry">
            <mxPoint x="120" y="320" as="sourcePoint" />
            <mxPoint x="120" y="40" as="targetPoint" />
          </mxGeometry>
        </mxCell>
        <mxCell id="a4DN0tWLdunBfCbzzwAo-2" value="" style="endArrow=none;html=1;rounded=0;fontSize=11;strokeWidth=5;" parent="1" edge="1">
          <mxGeometry width="50" height="50" relative="1" as="geometry">
            <mxPoint x="120" y="280" as="sourcePoint" />
            <mxPoint x="560" y="280" as="targetPoint" />
          </mxGeometry>
        </mxCell>
        <mxCell id="a4DN0tWLdunBfCbzzwAo-3" value="" style="endArrow=none;html=1;rounded=0;strokeWidth=4;" parent="1" edge="1">
          <mxGeometry width="50" height="50" relative="1" as="geometry">
            <mxPoint x="120" y="40" as="sourcePoint" />
            <mxPoint x="560" y="40" as="targetPoint" />
          </mxGeometry>
        </mxCell>
        <mxCell id="a4DN0tWLdunBfCbzzwAo-6" value="" style="endArrow=none;dashed=1;html=1;dashPattern=1 3;strokeWidth=2;rounded=0;" parent="1" edge="1">
          <mxGeometry width="50" height="50" relative="1" as="geometry">
            <mxPoint x="200" y="320" as="sourcePoint" />
            <mxPoint x="200" y="30" as="targetPoint" />
          </mxGeometry>
        </mxCell>
        <mxCell id="a4DN0tWLdunBfCbzzwAo-7" value="&lt;font style=&quot;font-size: 16px;&quot;&gt;Utilization&lt;/font&gt;" style="text;html=1;align=center;verticalAlign=middle;resizable=0;points=[];autosize=1;strokeColor=none;fillColor=none;rotation=-90;" parent="1" vertex="1">
          <mxGeometry x="60" y="165" width="90" height="30" as="geometry" />
        </mxCell>
        <mxCell id="a4DN0tWLdunBfCbzzwAo-8" value="&lt;span style=&quot;color: light-dark(rgb(0, 0, 0), rgb(0, 0, 0));&quot;&gt;1&lt;/span&gt;" style="text;html=1;align=center;verticalAlign=middle;resizable=0;points=[];autosize=1;strokeColor=none;fillColor=none;" parent="1" vertex="1">
          <mxGeometry x="160" y="135" width="30" height="30" as="geometry" />
        </mxCell>
        <mxCell id="a4DN0tWLdunBfCbzzwAo-9" value="&lt;span style=&quot;color: light-dark(rgb(0, 0, 0), rgb(0, 0, 0));&quot;&gt;2&lt;/span&gt;" style="text;html=1;align=center;verticalAlign=middle;resizable=0;points=[];autosize=1;strokeColor=none;fillColor=none;" parent="1" vertex="1">
          <mxGeometry x="410" y="135" width="30" height="30" as="geometry" />
        </mxCell>
        <mxCell id="a4DN0tWLdunBfCbzzwAo-10" value="Time" style="text;html=1;align=center;verticalAlign=middle;resizable=0;points=[];autosize=1;strokeColor=none;fillColor=none;" parent="1" vertex="1">
          <mxGeometry x="360" y="280" width="50" height="30" as="geometry" />
        </mxCell>
        <mxCell id="a4DN0tWLdunBfCbzzwAo-11" value="&lt;div&gt;Job 1&lt;/div&gt;&lt;div&gt;submitted&lt;/div&gt;" style="text;html=1;align=center;verticalAlign=middle;resizable=0;points=[];autosize=1;strokeColor=none;fillColor=none;" parent="1" vertex="1">
          <mxGeometry x="80" y="320" width="80" height="40" as="geometry" />
        </mxCell>
        <mxCell id="a4DN0tWLdunBfCbzzwAo-12" value="&lt;div&gt;Job 2&lt;/div&gt;&lt;div&gt;Submitted&lt;/div&gt;" style="text;html=1;align=center;verticalAlign=middle;resizable=0;points=[];autosize=1;strokeColor=none;fillColor=none;" parent="1" vertex="1">
          <mxGeometry x="160" y="320" width="80" height="40" as="geometry" />
        </mxCell>
        <mxCell id="a4DN0tWLdunBfCbzzwAo-13" value="" style="endArrow=none;dashed=1;html=1;dashPattern=1 3;strokeWidth=2;rounded=0;" parent="1" edge="1">
          <mxGeometry width="50" height="50" relative="1" as="geometry">
            <mxPoint x="240" y="290" as="sourcePoint" />
            <mxPoint x="240" as="targetPoint" />
          </mxGeometry>
        </mxCell>
        <mxCell id="a4DN0tWLdunBfCbzzwAo-14" value="&lt;div&gt;Job 3&lt;/div&gt;&lt;div&gt;Submitted&lt;/div&gt;" style="text;html=1;align=center;verticalAlign=middle;resizable=0;points=[];autosize=1;strokeColor=none;fillColor=none;" parent="1" vertex="1">
          <mxGeometry x="200" y="-40" width="80" height="40" as="geometry" />
        </mxCell>
        <mxCell id="a4DN0tWLdunBfCbzzwAo-16" value="" style="endArrow=none;html=1;rounded=0;strokeWidth=3;" parent="1" edge="1">
          <mxGeometry width="50" height="50" relative="1" as="geometry">
            <mxPoint x="120" y="720" as="sourcePoint" />
            <mxPoint x="120" y="440" as="targetPoint" />
          </mxGeometry>
        </mxCell>
        <mxCell id="a4DN0tWLdunBfCbzzwAo-17" value="" style="endArrow=none;html=1;rounded=0;fontSize=11;strokeWidth=5;" parent="1" edge="1">
          <mxGeometry width="50" height="50" relative="1" as="geometry">
            <mxPoint x="120" y="680" as="sourcePoint" />
            <mxPoint x="560" y="680" as="targetPoint" />
          </mxGeometry>
        </mxCell>
        <mxCell id="a4DN0tWLdunBfCbzzwAo-18" value="" style="endArrow=none;html=1;rounded=0;strokeWidth=4;" parent="1" edge="1">
          <mxGeometry width="50" height="50" relative="1" as="geometry">
            <mxPoint x="120" y="440" as="sourcePoint" />
            <mxPoint x="560" y="440" as="targetPoint" />
          </mxGeometry>
        </mxCell>
        <mxCell id="a4DN0tWLdunBfCbzzwAo-21" value="&lt;font style=&quot;font-size: 16px;&quot;&gt;Utilization&lt;/font&gt;" style="text;html=1;align=center;verticalAlign=middle;resizable=0;points=[];autosize=1;strokeColor=none;fillColor=none;rotation=-90;" parent="1" vertex="1">
          <mxGeometry x="60" y="565" width="90" height="30" as="geometry" />
        </mxCell>
        <mxCell id="a4DN0tWLdunBfCbzzwAo-22" value="&lt;span style=&quot;color: light-dark(rgb(0, 0, 0), rgb(0, 0, 0));&quot;&gt;1&lt;/span&gt;" style="text;html=1;align=center;verticalAlign=middle;resizable=0;points=[];autosize=1;strokeColor=none;fillColor=none;" parent="1" vertex="1">
          <mxGeometry x="140" y="565" width="30" height="30" as="geometry" />
        </mxCell>
        <mxCell id="a4DN0tWLdunBfCbzzwAo-24" value="&lt;span style=&quot;color: light-dark(rgb(0, 0, 0), rgb(0, 0, 0));&quot;&gt;2&lt;/span&gt;" style="text;html=1;align=center;verticalAlign=middle;resizable=0;points=[];autosize=1;strokeColor=none;fillColor=none;" parent="1" vertex="1">
          <mxGeometry x="205" y="595" width="30" height="30" as="geometry" />
        </mxCell>
        <mxCell id="a4DN0tWLdunBfCbzzwAo-25" value="Time" style="text;html=1;align=center;verticalAlign=middle;resizable=0;points=[];autosize=1;strokeColor=none;fillColor=none;" parent="1" vertex="1">
          <mxGeometry x="360" y="680" width="50" height="30" as="geometry" />
        </mxCell>
        <mxCell id="a4DN0tWLdunBfCbzzwAo-26" value="&lt;div&gt;Job 1&lt;/div&gt;&lt;div&gt;submitted&lt;/div&gt;" style="text;html=1;align=center;verticalAlign=middle;resizable=0;points=[];autosize=1;strokeColor=none;fillColor=none;" parent="1" vertex="1">
          <mxGeometry x="80" y="720" width="80" height="40" as="geometry" />
        </mxCell>
        <mxCell id="a4DN0tWLdunBfCbzzwAo-27" value="&lt;div&gt;Job 2&lt;/div&gt;&lt;div&gt;Submitted&lt;/div&gt;" style="text;html=1;align=center;verticalAlign=middle;resizable=0;points=[];autosize=1;strokeColor=none;fillColor=none;" parent="1" vertex="1">
          <mxGeometry x="160" y="720" width="80" height="40" as="geometry" />
        </mxCell>
        <mxCell id="a4DN0tWLdunBfCbzzwAo-29" value="&lt;div&gt;Job 3&lt;/div&gt;&lt;div&gt;Submitted&lt;/div&gt;" style="text;html=1;align=center;verticalAlign=middle;resizable=0;points=[];autosize=1;strokeColor=none;fillColor=none;" parent="1" vertex="1">
          <mxGeometry x="200" y="360" width="80" height="40" as="geometry" />
        </mxCell>
        <mxCell id="a4DN0tWLdunBfCbzzwAo-28" value="" style="endArrow=none;dashed=1;html=1;dashPattern=1 3;strokeWidth=2;rounded=0;" parent="1" edge="1">
          <mxGeometry width="50" height="50" relative="1" as="geometry">
            <mxPoint x="240" y="690" as="sourcePoint" />
            <mxPoint x="240" y="400" as="targetPoint" />
          </mxGeometry>
        </mxCell>
        <mxCell id="a4DN0tWLdunBfCbzzwAo-20" value="" style="endArrow=none;dashed=1;html=1;dashPattern=1 3;strokeWidth=2;rounded=0;" parent="1" edge="1">
          <mxGeometry width="50" height="50" relative="1" as="geometry">
            <mxPoint x="200" y="720" as="sourcePoint" />
            <mxPoint x="200" y="430" as="targetPoint" />
          </mxGeometry>
        </mxCell>
        <mxCell id="a4DN0tWLdunBfCbzzwAo-33" value="&lt;span style=&quot;color: light-dark(rgb(0, 0, 0), rgb(0, 0, 0));&quot;&gt;3&lt;/span&gt;" style="text;html=1;align=center;verticalAlign=middle;resizable=0;points=[];autosize=1;strokeColor=none;fillColor=none;" parent="1" vertex="1">
          <mxGeometry x="255" y="555" width="30" height="30" as="geometry" />
        </mxCell>
        <mxCell id="a4DN0tWLdunBfCbzzwAo-37" value="" style="endArrow=none;html=1;rounded=0;strokeWidth=3;" parent="1" edge="1">
          <mxGeometry width="50" height="50" relative="1" as="geometry">
            <mxPoint x="120" y="1040" as="sourcePoint" />
            <mxPoint x="120" y="760" as="targetPoint" />
          </mxGeometry>
        </mxCell>
        <mxCell id="a4DN0tWLdunBfCbzzwAo-38" value="" style="endArrow=none;html=1;rounded=0;fontSize=11;strokeWidth=5;" parent="1" edge="1">
          <mxGeometry width="50" height="50" relative="1" as="geometry">
            <mxPoint x="120" y="1000" as="sourcePoint" />
            <mxPoint x="560" y="1000" as="targetPoint" />
          </mxGeometry>
        </mxCell>
        <mxCell id="a4DN0tWLdunBfCbzzwAo-39" value="" style="endArrow=none;html=1;rounded=0;strokeWidth=4;" parent="1" edge="1">
          <mxGeometry width="50" height="50" relative="1" as="geometry">
            <mxPoint x="120" y="760" as="sourcePoint" />
            <mxPoint x="560" y="760" as="targetPoint" />
          </mxGeometry>
        </mxCell>
        <mxCell id="a4DN0tWLdunBfCbzzwAo-41" value="&lt;font style=&quot;font-size: 16px;&quot;&gt;Utilization&lt;/font&gt;" style="text;html=1;align=center;verticalAlign=middle;resizable=0;points=[];autosize=1;strokeColor=none;fillColor=none;rotation=-90;" parent="1" vertex="1">
          <mxGeometry x="60" y="885" width="90" height="30" as="geometry" />
        </mxCell>
        <mxCell id="a4DN0tWLdunBfCbzzwAo-45" value="Time" style="text;html=1;align=center;verticalAlign=middle;resizable=0;points=[];autosize=1;strokeColor=none;fillColor=none;" parent="1" vertex="1">
          <mxGeometry x="360" y="1000" width="50" height="30" as="geometry" />
        </mxCell>
        <mxCell id="a4DN0tWLdunBfCbzzwAo-46" value="&lt;div&gt;Job 1&lt;/div&gt;&lt;div&gt;submitted&lt;/div&gt;" style="text;html=1;align=center;verticalAlign=middle;resizable=0;points=[];autosize=1;strokeColor=none;fillColor=none;" parent="1" vertex="1">
          <mxGeometry x="80" y="1040" width="80" height="40" as="geometry" />
        </mxCell>
        <mxCell id="a4DN0tWLdunBfCbzzwAo-47" value="&lt;div&gt;Job 2&lt;/div&gt;&lt;div&gt;Submitted&lt;/div&gt;" style="text;html=1;align=center;verticalAlign=middle;resizable=0;points=[];autosize=1;strokeColor=none;fillColor=none;" parent="1" vertex="1">
          <mxGeometry x="280" y="1040" width="80" height="40" as="geometry" />
        </mxCell>
        <mxCell id="a4DN0tWLdunBfCbzzwAo-53" value="" style="endArrow=none;dashed=1;html=1;dashPattern=1 3;strokeWidth=2;rounded=0;" parent="1" edge="1">
          <mxGeometry width="50" height="50" relative="1" as="geometry">
            <mxPoint x="320" y="1040" as="sourcePoint" />
            <mxPoint x="320" y="750" as="targetPoint" />
          </mxGeometry>
        </mxCell>
        <mxCell id="a4DN0tWLdunBfCbzzwAo-62" value="&lt;span style=&quot;color: light-dark(rgb(0, 0, 0), rgb(0, 0, 0));&quot;&gt;2&lt;/span&gt;" style="text;html=1;align=center;verticalAlign=middle;resizable=0;points=[];autosize=1;strokeColor=none;fillColor=none;" parent="1" vertex="1">
          <mxGeometry x="385" y="785" width="30" height="30" as="geometry" />
        </mxCell>
        <mxCell id="a4DN0tWLdunBfCbzzwAo-64" value="&lt;span style=&quot;color: light-dark(rgb(0, 0, 0), rgb(0, 0, 0));&quot;&gt;1&lt;/span&gt;" style="text;html=1;align=center;verticalAlign=middle;resizable=0;points=[];autosize=1;strokeColor=none;fillColor=none;" parent="1" vertex="1">
          <mxGeometry x="225" y="920" width="30" height="30" as="geometry" />
        </mxCell>
        <mxCell id="KaQ-j1_GzLLHuJ-c1gCZ-1" value="User 1" style="ellipse;whiteSpace=wrap;html=1;fillColor=light-dark(#FFFFFF,#FFFFFF);fontColor=#333333;strokeColor=#666666;rotation=-90;" vertex="1" parent="1">
          <mxGeometry x="547.19" y="933.44" width="76.88" height="51.25" as="geometry" />
        </mxCell>
        <mxCell id="KaQ-j1_GzLLHuJ-c1gCZ-2" value="User 1" style="ellipse;whiteSpace=wrap;html=1;fillColor=light-dark(#FFFFFF,#FFFFFF);fontColor=#333333;strokeColor=#666666;rotation=-90;" vertex="1" parent="1">
          <mxGeometry x="548.13" y="856" width="75" height="50" as="geometry" />
        </mxCell>
        <mxCell id="KaQ-j1_GzLLHuJ-c1gCZ-3" value="User 1" style="ellipse;whiteSpace=wrap;html=1;fillColor=light-dark(#FFFFFF,#FFFFFF);fontColor=#333333;strokeColor=#666666;rotation=-90;" vertex="1" parent="1">
          <mxGeometry x="548.13" y="775" width="75" height="50" as="geometry" />
        </mxCell>
      </root>
    </mxGraphModel>
  </diagram>
</mxfile>
